<?xml version="1.0" encoding="UTF-8"?><svg id="Layer_2" xmlns="http://www.w3.org/2000/svg" xmlns:xlink="http://www.w3.org/1999/xlink" viewBox="0 0 712.18 139.26"><defs><style>.cls-1{fill:url(#linear-gradient);}.cls-2,.cls-3{fill:#fff;}.cls-4,.cls-3{opacity:.96;}</style><linearGradient id="linear-gradient" x1="69.63" y1="139.26" x2="69.63" y2="0" gradientTransform="matrix(1, 0, 0, 1, 0, 0)" gradientUnits="userSpaceOnUse"><stop offset="0" stop-color="#c570c2"/><stop offset="1" stop-color="#81a5c5"/></linearGradient></defs><g id="Layer_1-2"><g><rect class="cls-1" width="139.26" height="139.26" rx="19.89" ry="19.89"/><g><path class="cls-2" d="M74.97,116.55h-10.94c-.55,0-.99-.45-.99-.99v-24.37c0-.55,.45-.99,.99-.99h29.23c.82,0,1.49-.67,1.49-1.49v-10.94c0-.82-.67-1.49-1.49-1.49H46c-7.97,0-14.42-6.46-14.42-14.42v-10.94c0-7.97,6.46-14.42,14.42-14.42h56.7c.55,0,.99,.45,.99,.99v10.94c0,.55-.45,.99-.99,.99H46c-.82,0-1.49,.67-1.49,1.49v10.94c0,.82,.67,1.49,1.49,1.49h47.25c7.97,0,14.42,6.46,14.42,14.42v10.94c0,7.97-6.46,14.42-14.42,14.42h-17.29v12.43c0,.55-.45,.99-.99,.99Z"/><rect class="cls-2" x="34.57" y="90.19" width="18.52" height="12.93" rx=".99" ry=".99"/></g></g><g class="cls-4"><path class="cls-3" d="M258.79,102.9c-2.4,0-4.62-.6-6.64-1.8-2.03-1.2-3.65-2.82-4.85-4.85-1.2-2.03-1.8-4.25-1.8-6.65V49.74c0-2.4,.6-4.62,1.8-6.65,1.2-2.03,2.82-3.65,4.85-4.85,2.03-1.2,4.25-1.8,6.64-1.8h39.88c2.4,0,4.6,.6,6.6,1.8,2,1.2,3.61,2.82,4.85,4.85,1.23,2.03,1.85,4.25,1.85,6.65v39.87c0,2.4-.62,4.62-1.85,6.65-1.23,2.03-2.85,3.65-4.85,4.85-2,1.2-4.2,1.8-6.6,1.8h-39.88Zm.55-13.38h38.58c.12,0,.25-.06,.37-.18s.18-.25,.18-.37V50.38c0-.12-.06-.25-.18-.37-.12-.12-.25-.18-.37-.18h-38.58c-.12,0-.25,.06-.37,.18-.12,.12-.19,.25-.19,.37v38.58c0,.12,.06,.25,.19,.37,.12,.12,.25,.18,.37,.18Z"/><path class="cls-3" d="M322.9,89.98V37.51c0-.64,.52-1.16,1.16-1.16h10.97c.64,0,1.16,.52,1.16,1.16v52.01h42.78c.64,0,1.16,.52,1.16,1.16v11.07c0,.64-.52,1.16-1.16,1.16h-43.15c-7.14,0-12.92-5.79-12.92-12.92Z"/><path class="cls-3" d="M400.02,101.74V37.7c0-.64,.52-1.16,1.16-1.16h51.91c2.4,0,4.62,.6,6.64,1.8,2.03,1.2,3.66,2.82,4.89,4.85,1.23,2.03,1.85,4.25,1.85,6.65v17.54c0,2.4-.62,4.6-1.85,6.6-1.23,2-2.86,3.6-4.89,4.8-2.03,1.2-4.25,1.8-6.64,1.8l-39.78,.09v21.09c0,.64-.52,1.16-1.16,1.16h-10.97c-.64,0-1.16-.52-1.16-1.16Zm13.85-34.56h38.58c.12,0,.25-.05,.37-.14,.12-.09,.18-.2,.18-.32v-16.34c0-.12-.06-.25-.18-.37-.12-.12-.25-.18-.37-.18h-38.58c-.12,0-.25,.06-.37,.18-.12,.12-.18,.25-.18,.37v16.34c0,.12,.06,.23,.18,.32,.12,.09,.25,.14,.37,.14Z"/><path class="cls-3" d="M477.58,102.9c-.64,0-1.16-.52-1.16-1.16V62.38c0-2.34,.6-4.49,1.8-6.46,1.2-1.97,2.78-3.55,4.75-4.75,1.97-1.2,4.15-1.8,6.55-1.8h28.47c.64,0,1.16,.52,1.16,1.16v10.79c0,.64-.52,1.16-1.16,1.16h-27.92c-.12,0-.25,.06-.37,.18-.12,.12-.18,.25-.18,.37v38.72c0,.64-.52,1.16-1.16,1.16h-10.79Z"/><path class="cls-3" d="M534.66,101.1c-1.97-1.2-3.55-2.78-4.75-4.75-1.2-1.97-1.8-4.12-1.8-6.46v-27.51c0-2.34,.6-4.49,1.8-6.46,1.2-1.97,2.78-3.55,4.75-4.75,1.97-1.2,4.12-1.8,6.46-1.8h28.24c2.4,0,4.58,.6,6.55,1.8,1.97,1.2,3.54,2.78,4.71,4.75,1.17,1.97,1.75,4.12,1.75,6.46v27.51c0,2.34-.59,4.49-1.75,6.46-1.17,1.97-2.74,3.55-4.71,4.75-1.97,1.2-4.15,1.8-6.55,1.8h-28.24c-2.34,0-4.49-.6-6.46-1.8Zm7.11-11.31h26.95c.12,0,.25-.06,.37-.18,.12-.12,.18-.25,.18-.37v-26.21c0-.12-.06-.25-.18-.37-.12-.12-.25-.18-.37-.18h-26.95c-.12,0-.25,.06-.37,.18-.12,.12-.18,.25-.18,.37v26.21c0,.12,.06,.25,.18,.37,.12,.12,.25,.18,.37,.18Z"/><path class="cls-3" d="M589.58,101.96l21.49-26.28-21.58-25.35c-.32-.38-.05-.95,.44-.95h15.43c.34,0,.66,.15,.88,.41l13.41,15.84,13.31-15.83c.22-.26,.54-.41,.89-.41h15.43c.49,0,.76,.58,.44,.95l-21.58,25.35,21.48,26.28c.31,.38,.04,.95-.45,.95h-15.22c-.35,0-.68-.16-.9-.43l-13.41-16.46-13.41,16.46c-.22,.27-.55,.43-.9,.43h-15.32c-.49,0-.76-.57-.45-.95Z"/><path class="cls-3" d="M666.49,101.74v-10.88c0-.64,.52-1.16,1.16-1.16h30.87c.12,0,.25-.06,.37-.18,.12-.12,.18-.25,.18-.37v-5.72h-28.15c-2.4,0-4.59-.6-6.55-1.8-1.97-1.2-3.55-2.78-4.75-4.75-1.2-1.97-1.8-4.12-1.8-6.46v-19.89c0-.64,.52-1.16,1.16-1.16h10.79c.64,0,1.16,.52,1.16,1.16v19.24c0,.12,.06,.25,.18,.37,.12,.12,.25,.18,.37,.18h27.04c.12,0,.25-.06,.37-.18,.12-.12,.18-.25,.18-.37v-19.24c0-.64,.52-1.16,1.16-1.16h10.79c.64,0,1.16,.52,1.16,1.16v39.36c0,2.4-.58,4.58-1.75,6.55-1.17,1.97-2.74,3.54-4.71,4.71-1.97,1.17-4.15,1.75-6.55,1.75h-31.52c-.64,0-1.16-.52-1.16-1.16Z"/><path class="cls-3" d="M233.71,69.54c-1.23-2-2.85-3.6-4.85-4.8-2-1.2-4.2-1.8-6.6-1.8h-39.41c-.12,0-.23-.05-.32-.14-.09-.09-.14-.2-.14-.32v-12.09c0-.12,.05-.25,.14-.37,.09-.12,.2-.18,.32-.18h48.43c.32,0,.58-.26,.58-.58v-11.65c0-.64-.52-1.16-1.16-1.16h-48.41c-2.4,0-4.62,.6-6.65,1.8-2.03,1.2-3.63,2.82-4.8,4.85-1.17,2.03-1.75,4.25-1.75,6.65v13.38c0,2.46,.58,4.69,1.75,6.69,1.17,2,2.77,3.6,4.8,4.8,2.03,1.2,4.25,1.8,6.65,1.8h39.23c.12,0,.25,.05,.37,.14,.12,.09,.18,.2,.18,.32v12.09c0,.12-.06,.25-.18,.37s-.25,.18-.37,.18h-50c-.32,0-.58,.26-.58,.58v11.65c0,.64,.52,1.16,1.16,1.16h50.16c2.4,0,4.6-.6,6.6-1.8,2-1.2,3.61-2.82,4.85-4.85,1.23-2.03,1.85-4.25,1.85-6.65v-13.38c0-2.46-.61-4.69-1.85-6.69Z"/></g></g></svg>